<?xml version="1.0" standalone="no"?><svg xmlns="http://www.w3.org/2000/svg" viewBox="0 0 1440 320"><path fill="#32CD32" fill-opacity="1" d="M0,0L24,5.3C48,11,96,21,144,37.3C192,53,240,75,288,106.7C336,139,384,181,432,213.3C480,245,528,267,576,266.7C624,267,672,245,720,224C768,203,816,181,864,154.7C912,128,960,96,1008,117.3C1056,139,1104,213,1152,229.3C1200,245,1248,203,1296,197.3C1344,192,1392,224,1416,240L1440,256L1440,320L1416,320C1392,320,1344,320,1296,320C1248,320,1200,320,1152,320C1104,320,1056,320,1008,320C960,320,912,320,864,320C816,320,768,320,720,320C672,320,624,320,576,320C528,320,480,320,432,320C384,320,336,320,288,320C240,320,192,320,144,320C96,320,48,320,24,320L0,320Z"></path></svg>