<?xml version="1.0" standalone="no"?><svg xmlns="http://www.w3.org/2000/svg" viewBox="0 0 1440 320"><path fill="#00cc00" fill-opacity="1" d="M0,96L40,106.7C80,117,160,139,240,165.3C320,192,400,224,480,234.7C560,245,640,235,720,234.7C800,235,880,245,960,256C1040,267,1120,277,1200,240C1280,203,1360,117,1400,74.7L1440,32L1440,320L1400,320C1360,320,1280,320,1200,320C1120,320,1040,320,960,320C880,320,800,320,720,320C640,320,560,320,480,320C400,320,320,320,240,320C160,320,80,320,40,320L0,320Z"></path></svg>